<svg xmlns="http://www.w3.org/2000/svg" xmlns:xlink="http://www.w3.org/1999/xlink" width="500" zoomAndPan="magnify" viewBox="0 0 375 374.999991" height="500" preserveAspectRatio="xMidYMid meet" version="1.0"><defs><clipPath id="6b77c0dd79"><path d="M 2 16.171875 L 373 16.171875 L 373 358 L 2 358 Z M 2 16.171875 " clip-rule="nonzero"/></clipPath></defs><g clip-path="url(#6b77c0dd79)"><path fill="#000000" d="M 326.460938 151.742188 C 307.507812 136.609375 283.730469 125.996094 259.257812 125.304688 C 256.160156 125.214844 253.046875 125.304688 249.945312 125.585938 C 246.589844 125.875 243.476562 126.773438 240.203125 127.484375 C 237.695312 128.023438 238.753906 131.875 241.269531 131.335938 C 244.394531 130.65625 247.746094 130.558594 250.921875 130.316406 C 254.105469 130.078125 257.289062 130.039062 260.484375 130.179688 C 266.921875 130.457031 273.300781 131.515625 279.539062 133.144531 C 290.6875 136.050781 301.296875 140.769531 311.078125 146.8125 C 329.285156 158.074219 344.296875 174.117188 354.367188 193.007812 C 365.089844 213.097656 369.242188 236.167969 366.695312 258.785156 C 365.136719 272.640625 360.925781 286.179688 354.277344 298.398438 C 353.839844 298.410156 353.429688 298.570312 353.082031 298.929688 C 349.179688 303.023438 344.894531 306.738281 340.285156 309.980469 C 345.164062 304.121094 349.917969 298.140625 353.710938 291.511719 C 357.601562 284.710938 361.214844 276.566406 361.117188 268.566406 C 361.117188 268.316406 360.707031 268.238281 360.65625 268.507812 C 359.96875 272.402344 359.28125 276.226562 357.992188 279.980469 C 356.652344 283.894531 354.859375 287.648438 352.792969 291.230469 C 348.6875 298.339844 343.558594 304.800781 338.476562 311.230469 C 336.542969 312.519531 334.535156 313.707031 332.480469 314.8125 C 335.871094 311.371094 338.886719 307.457031 341.613281 303.59375 C 345.574219 297.960938 348.890625 291.878906 351.554688 285.539062 C 353.0625 281.945312 354.679688 278.132812 355.257812 274.257812 C 355.316406 273.871094 354.816406 273.738281 354.667969 274.097656 C 352.929688 278.222656 351.761719 282.546875 349.957031 286.660156 C 348.21875 290.601562 346.222656 294.425781 343.976562 298.101562 C 341.683594 301.855469 339.15625 305.480469 336.382812 308.894531 C 334.324219 311.429688 332.082031 313.777344 329.863281 316.152344 C 329.125 316.511719 328.386719 316.878906 327.628906 317.21875 C 325.574219 318.140625 323.476562 318.957031 321.339844 319.695312 C 333.109375 309.574219 342.0625 296.582031 347.511719 282.035156 C 349.046875 277.921875 350.574219 273.601562 351.085938 269.226562 C 351.125 268.867188 350.585938 268.835938 350.484375 269.148438 C 349.257812 272.832031 348.390625 276.605469 347.082031 280.269531 C 345.746094 284.003906 344.167969 287.65625 342.371094 291.191406 C 338.808594 298.199219 334.375 304.710938 329.296875 310.699219 C 326.449219 314.054688 323.367188 317.199219 320.082031 320.117188 C 318.644531 320.585938 317.199219 321.015625 315.742188 321.414062 C 328.894531 310.601562 338.429688 295.714844 343.109375 279.332031 C 343.828125 276.824219 344.425781 274.289062 344.90625 271.722656 C 345.367188 269.265625 345.992188 266.5625 345.792969 264.046875 C 348.550781 250.117188 348.320312 235.648438 344.828125 221.800781 C 339.976562 202.5625 329.246094 184.722656 314.632812 171.324219 C 299.25 157.195312 279.847656 148.550781 259.105469 146.332031 C 250.683594 145.433594 242.15625 145.625 233.773438 146.851562 C 233.535156 146.222656 233.273438 145.605469 233.015625 144.984375 C 234.191406 144.835938 235.359375 144.644531 236.539062 144.503906 C 238.625 144.253906 240.71875 144.054688 242.816406 143.90625 C 247.089844 143.597656 251.371094 143.535156 255.652344 143.714844 C 264.226562 144.074219 272.761719 145.363281 281.046875 147.609375 C 285.6875 148.867188 290.238281 150.4375 294.679688 152.273438 C 295.367188 152.550781 295.65625 151.445312 294.988281 151.164062 C 279.117188 144.527344 261.792969 141.558594 244.613281 142.578125 C 242.1875 142.71875 239.761719 142.949219 237.355469 143.265625 C 235.789062 143.476562 234.183594 143.675781 232.617188 144.007812 C 232.148438 142.886719 231.65625 141.78125 231.160156 140.671875 C 234.691406 140.230469 238.214844 139.714844 241.777344 139.453125 C 245.8125 139.164062 249.855469 139.074219 253.894531 139.222656 C 262.28125 139.554688 270.484375 141.03125 278.667969 142.808594 C 278.859375 142.847656 278.929688 142.589844 278.75 142.519531 C 270.882812 139.742188 262.441406 138.546875 254.136719 138.234375 C 249.945312 138.074219 245.730469 138.15625 241.550781 138.523438 C 237.996094 138.835938 234.382812 139.265625 230.910156 140.132812 C 230.410156 139.042969 229.882812 137.976562 229.351562 136.90625 C 233.023438 136.257812 236.667969 135.53125 240.402344 135.128906 C 244.761719 134.671875 249.144531 134.53125 253.535156 134.652344 C 262.421875 134.878906 270.984375 136.488281 279.566406 138.675781 C 279.828125 138.746094 279.917969 138.375 279.679688 138.285156 C 271.402344 135.191406 262.339844 133.8125 253.535156 133.53125 C 249.085938 133.394531 244.601562 133.613281 240.171875 134.113281 C 236.449219 134.542969 232.597656 135.089844 228.960938 136.140625 C 228.664062 135.550781 228.363281 134.949219 228.054688 134.371094 C 229.871094 133.351562 231.675781 132.324219 233.496094 131.328125 C 234.054688 131.015625 234.273438 130.488281 234.242188 129.957031 C 235.0625 129.078125 234.261719 127.253906 232.765625 127.574219 C 230.238281 128.113281 227.726562 128.710938 225.210938 129.359375 C 218.242188 117.6875 209.257812 107.214844 198.769531 98.46875 C 193.367188 93.964844 187.601562 89.902344 181.582031 86.269531 C 184.054688 85.320312 186.273438 83.542969 188.417969 82.066406 C 191.003906 80.277344 193.527344 78.421875 196.015625 76.492188 C 198.390625 74.648438 200.785156 72.78125 203.039062 70.78125 C 205.148438 68.925781 208.402344 66.6875 208.402344 63.59375 C 208.402344 62.914062 207.851562 62.457031 207.214844 62.40625 C 204.289062 62.1875 201.832031 65.082031 199.777344 66.808594 C 197.402344 68.796875 195.074219 70.84375 192.671875 72.800781 C 190.335938 74.695312 187.980469 76.574219 185.613281 78.421875 C 183.238281 80.269531 180.53125 81.90625 178.707031 84.332031 C 178.65625 84.390625 178.648438 84.449219 178.617188 84.519531 C 174.253906 82.023438 169.761719 79.757812 165.171875 77.710938 C 165.339844 77.671875 165.5 77.570312 165.652344 77.402344 C 168.972656 73.519531 172.476562 69.722656 175.632812 65.699219 C 177.097656 63.832031 178.535156 61.96875 179.972656 60.078125 C 180.441406 60.6875 180.902344 61.308594 181.371094 61.917969 C 181.75 62.417969 182.109375 63.066406 182.6875 63.355469 C 182.898438 63.464844 183.128906 63.285156 183.078125 63.054688 C 182.949219 62.464844 182.46875 61.996094 182.109375 61.527344 C 181.632812 60.910156 181.152344 60.300781 180.671875 59.679688 L 180.484375 59.429688 C 180.914062 58.882812 181.363281 58.332031 181.820312 57.773438 C 182.03125 58.03125 182.238281 58.28125 182.449219 58.542969 C 182.71875 58.871094 182.988281 59.390625 183.425781 59.492188 C 183.578125 59.519531 183.738281 59.421875 183.738281 59.261719 C 183.726562 58.84375 183.378906 58.574219 183.117188 58.261719 C 182.828125 57.921875 182.550781 57.582031 182.257812 57.234375 C 182.917969 56.394531 183.539062 55.539062 184.027344 54.628906 L 184.234375 54.878906 C 184.503906 55.207031 184.773438 55.539062 185.054688 55.855469 C 185.3125 56.15625 185.574219 56.484375 185.960938 56.59375 C 186.101562 56.636719 186.300781 56.515625 186.28125 56.355469 C 186.230469 55.964844 186.003906 55.695312 185.773438 55.398438 C 185.523438 55.066406 185.253906 54.757812 184.984375 54.449219 C 184.804688 54.230469 184.617188 54.019531 184.4375 53.800781 C 184.476562 53.699219 184.527344 53.601562 184.566406 53.5 C 184.617188 53.371094 184.636719 53.242188 184.636719 53.132812 C 186.320312 53.710938 188.007812 54.300781 189.664062 54.957031 C 195.246094 57.164062 200.753906 59.609375 206.445312 61.539062 C 207.003906 61.726562 207.503906 61.527344 207.851562 61.15625 C 208.820312 61.246094 209.886719 60.570312 210.109375 59.621094 C 210.585938 57.503906 208.988281 54.976562 208.191406 53.042969 C 207.304688 50.875 206.414062 48.699219 205.527344 46.53125 C 204.667969 44.433594 203.847656 42.316406 202.910156 40.25 C 202.171875 38.625 201.515625 36.738281 200.527344 35.179688 C 200.65625 34.761719 200.734375 34.332031 200.707031 33.890625 C 200.707031 33.75 200.644531 33.640625 200.585938 33.542969 C 200.425781 32.753906 199.925781 32.035156 198.96875 31.695312 C 191.402344 29 183.777344 26.472656 176.171875 23.90625 C 169.222656 21.5625 162.007812 18.824219 154.671875 17.957031 C 154.371094 17.4375 153.863281 17.039062 153.265625 16.820312 C 151.667969 16.25 150.257812 17.160156 148.882812 17.886719 C 147.785156 18.464844 146.695312 19.035156 145.609375 19.613281 L 138.582031 23.308594 C 136.246094 24.535156 133.910156 25.804688 131.683594 27.222656 C 129.5 28.621094 127.53125 30.257812 125.574219 31.964844 C 124.964844 32.492188 125.296875 33.3125 125.886719 33.613281 C 125.835938 33.703125 125.785156 33.78125 125.746094 33.882812 C 125.144531 35.320312 125.574219 36.976562 125.863281 38.445312 C 126.183594 40.03125 126.5625 41.609375 126.941406 43.1875 C 127.671875 46.25 128.398438 49.316406 129.128906 52.382812 C 130.328125 57.414062 131.613281 62.394531 133.070312 67.347656 C 132.453125 67.21875 131.84375 67.078125 131.226562 66.957031 C 110.921875 62.933594 89.421875 63.433594 70.65625 72.898438 C 46.464844 85.089844 24.714844 105.257812 13.164062 130.019531 C 2.964844 151.894531 -0.0390625 176.34375 4.523438 200.035156 C 9.183594 224.226562 21.21875 246.800781 37.828125 264.902344 C 55.488281 284.152344 79.351562 299.976562 105.921875 302.214844 C 120.445312 303.433594 135.136719 300.714844 148.910156 296.234375 C 150.839844 295.605469 152.765625 294.9375 154.660156 294.246094 C 167.367188 312.546875 184.015625 328.34375 203.109375 339.773438 C 223.015625 351.695312 246.101562 358.863281 269.4375 357.746094 C 292.066406 356.65625 313.835938 347.820312 331.492188 333.753906 C 349.828125 319.136719 362.863281 298.78125 368.832031 276.125 C 374.960938 252.871094 373.933594 227.601562 365.527344 205.050781 C 357.710938 184.09375 343.949219 165.742188 326.511719 151.792969 Z M 342.601562 277.324219 C 341.402344 281.738281 339.84375 286.058594 337.960938 290.234375 C 334.1875 298.550781 329.105469 306.289062 322.976562 313.058594 C 320.101562 316.222656 317 319.1875 313.703125 321.914062 C 312.875 322.113281 312.046875 322.3125 311.210938 322.480469 C 324.324219 311.558594 334.445312 297.273438 340.734375 281.347656 C 341.890625 278.421875 342.890625 275.4375 343.757812 272.421875 C 343.417969 274.070312 343.039062 275.707031 342.601562 277.332031 Z M 251.621094 150.355469 C 271.351562 150.984375 290.765625 157.683594 306.308594 169.964844 C 321.28125 181.796875 332.71875 197.988281 338.707031 216.121094 C 344.816406 234.601562 344.828125 254.429688 339.058594 272.992188 C 333.269531 291.570312 321.960938 308.40625 306.699219 320.515625 C 305.199219 321.714844 303.632812 322.839844 302.046875 323.929688 C 300.328125 324.128906 298.601562 324.277344 296.886719 324.378906 C 274.457031 325.6875 252.070312 319.4375 232.886719 307.933594 C 217.882812 298.917969 204.898438 286.539062 195.585938 271.761719 C 209.449219 261.128906 221.457031 247.929688 229.691406 232.515625 C 241.359375 210.691406 244.085938 185.421875 238.355469 161.417969 C 237.515625 157.925781 236.519531 154.488281 235.351562 151.105469 C 240.742188 150.425781 246.191406 150.175781 251.621094 150.355469 Z M 187.421875 255.859375 C 178.335938 233.445312 176.910156 207.933594 184.984375 185.011719 C 187.390625 178.171875 190.613281 171.601562 194.566406 165.492188 C 198.730469 163.214844 202.871094 160.871094 207.203125 158.914062 C 207.453125 158.792969 207.703125 158.683594 207.960938 158.574219 C 214.359375 169.324219 218.792969 181.1875 220.230469 193.597656 C 222.433594 212.757812 218.082031 233.375 205.707031 248.667969 C 205.476562 248.949219 205.246094 249.238281 205.007812 249.507812 C 200.015625 253.382812 194.6875 256.796875 189.097656 259.742188 C 188.507812 258.472656 187.960938 257.175781 187.421875 255.867188 Z M 205.886719 155.207031 C 203.738281 156.207031 201.632812 157.296875 199.566406 158.464844 C 201.066406 156.527344 202.652344 154.660156 204.320312 152.851562 C 204.859375 153.632812 205.386719 154.417969 205.886719 155.207031 Z M 201.554688 257.664062 C 202.300781 258.035156 203.25 258.003906 204.027344 257.226562 C 205.375 255.898438 206.652344 254.53125 207.871094 253.101562 L 207.882812 253.101562 C 208.191406 252.871094 208.480469 252.632812 208.769531 252.394531 C 203.871094 257.734375 198.480469 262.636719 192.78125 267.039062 C 192.203125 265.992188 191.632812 264.933594 191.082031 263.855469 C 194.6875 261.988281 198.171875 259.910156 201.554688 257.65625 Z M 173.375 64.074219 C 170.273438 67.996094 167.367188 72.050781 164.183594 75.925781 C 163.835938 76.355469 163.882812 76.863281 164.132812 77.222656 C 159.921875 75.386719 155.640625 73.726562 151.289062 72.269531 C 152.445312 70.292969 152.90625 67.816406 153.492188 65.652344 C 154.242188 62.867188 154.949219 60.058594 155.519531 57.234375 C 156.070312 54.488281 156.566406 51.734375 157.007812 48.957031 C 157.257812 47.390625 157.527344 45.742188 157.617188 44.105469 C 158.183594 44.285156 158.742188 44.464844 159.3125 44.65625 C 163.566406 46.042969 167.796875 47.46875 172.027344 48.917969 C 171.871094 48.949219 171.730469 49.117188 171.839844 49.265625 C 173.644531 51.691406 175.441406 54.121094 177.277344 56.527344 C 177.609375 56.953125 177.929688 57.382812 178.257812 57.8125 C 178.207031 57.875 178.15625 57.941406 178.109375 58.003906 C 176.550781 60.039062 174.972656 62.066406 173.375 64.082031 Z M 195.265625 37.046875 C 194.566406 37.984375 193.867188 38.914062 193.140625 39.8125 C 192.222656 38.675781 191.273438 37.566406 190.253906 36.515625 C 189.945312 36.199219 189.457031 36.6875 189.765625 37.007812 C 190.804688 38.066406 191.773438 39.191406 192.699219 40.351562 C 192.332031 40.789062 191.960938 41.21875 191.5625 41.648438 C 191.171875 42.070312 190.753906 42.46875 190.355469 42.886719 C 189.675781 41.988281 188.988281 41.082031 188.308594 40.179688 C 188.058594 39.851562 187.488281 40.179688 187.738281 40.511719 C 188.449219 41.46875 189.15625 42.429688 189.867188 43.386719 C 188.359375 44.945312 186.820312 46.460938 185.253906 47.949219 C 185.253906 47.917969 185.234375 47.890625 185.222656 47.871094 C 184.925781 46.921875 184.625 45.972656 184.324219 45.015625 C 183.777344 43.246094 183.179688 41.488281 182.589844 39.730469 C 181.53125 36.558594 180.511719 33.363281 179.453125 30.175781 C 185.003906 32.105469 190.5625 34.03125 196.144531 35.878906 C 195.816406 36.289062 195.515625 36.6875 195.246094 37.046875 Z M 180.382812 54.988281 C 180.3125 54.90625 180.242188 54.816406 180.171875 54.738281 C 178.976562 53.3125 177.777344 51.871094 176.582031 50.445312 C 178.398438 51.042969 180.222656 51.644531 182.050781 52.242188 L 182.371094 52.621094 C 181.589844 53.3125 181.011719 54.160156 180.394531 54.996094 Z M 177.578125 30.527344 C 178.335938 33.921875 179.195312 37.285156 180.0625 40.652344 C 180.554688 42.507812 181.050781 44.363281 181.621094 46.203125 C 181.910156 47.152344 182.210938 48.109375 182.5 49.058594 C 182.578125 49.316406 182.660156 49.578125 182.738281 49.828125 C 181.910156 49.515625 181.09375 49.21875 180.261719 48.917969 L 179.882812 48.476562 C 179.683594 48.25 179.414062 48.367188 179.304688 48.578125 C 178.648438 48.339844 177.988281 48.097656 177.320312 47.871094 C 171.421875 45.824219 165.5 43.804688 159.5625 41.859375 C 163.335938 40.3125 166.71875 37.84375 170.09375 35.578125 C 171.910156 34.351562 173.726562 33.132812 175.542969 31.90625 C 176.222656 31.445312 176.898438 30.996094 177.570312 30.546875 Z M 177.859375 56.066406 C 176 53.691406 174.105469 51.332031 172.230469 48.96875 C 172.9375 49.207031 173.65625 49.445312 174.363281 49.695312 C 174.855469 49.867188 175.34375 50.027344 175.820312 50.1875 C 175.78125 50.285156 175.78125 50.40625 175.863281 50.503906 C 177.121094 52.042969 178.386719 53.582031 179.644531 55.128906 C 179.753906 55.257812 179.863281 55.398438 179.972656 55.527344 C 179.554688 56.078125 179.136719 56.636719 178.714844 57.183594 C 178.425781 56.816406 178.136719 56.445312 177.847656 56.078125 Z M 199.339844 41.441406 C 200.035156 43.667969 200.855469 45.851562 201.632812 48.050781 C 202.382812 50.175781 203.140625 52.292969 203.890625 54.417969 C 204.238281 55.398438 204.539062 56.574219 204.949219 57.683594 C 200.863281 56.085938 196.683594 54.726562 192.519531 53.351562 C 190.265625 52.601562 188.039062 51.78125 185.8125 50.953125 C 185.84375 50.863281 185.871094 50.773438 185.882812 50.683594 C 185.914062 50.464844 185.902344 50.234375 185.875 50.007812 C 187.71875 48.46875 189.515625 46.882812 191.261719 45.222656 C 191.601562 45.671875 191.933594 46.132812 192.269531 46.582031 C 192.761719 47.242188 193.21875 47.917969 193.859375 48.449219 C 194.058594 48.609375 194.296875 48.410156 194.199219 48.179688 C 193.859375 47.398438 193.320312 46.75 192.808594 46.082031 C 192.472656 45.621094 192.121094 45.171875 191.78125 44.714844 C 192.3125 44.207031 192.839844 43.695312 193.347656 43.175781 C 193.636719 42.886719 193.949219 42.609375 194.238281 42.328125 C 194.636719 42.886719 195.035156 43.4375 195.414062 44.015625 C 195.675781 44.414062 195.933594 44.824219 196.175781 45.234375 C 196.421875 45.644531 196.652344 46.152344 197.042969 46.453125 C 197.160156 46.550781 197.421875 46.511719 197.402344 46.300781 C 197.351562 45.863281 197.113281 45.484375 196.890625 45.113281 C 196.621094 44.65625 196.332031 44.195312 196.042969 43.746094 C 195.625 43.105469 195.1875 42.476562 194.738281 41.859375 C 195.164062 41.449219 195.585938 41.039062 196.023438 40.628906 C 197.003906 41.917969 197.992188 43.214844 199.058594 44.433594 C 199.160156 44.542969 199.347656 44.394531 199.269531 44.273438 C 198.351562 42.925781 197.332031 41.640625 196.324219 40.351562 C 196.78125 39.921875 197.242188 39.503906 197.679688 39.054688 C 197.890625 38.84375 198.121094 38.605469 198.339844 38.363281 C 198.667969 39.414062 199.058594 40.441406 199.359375 41.410156 Z M 174.824219 28.558594 C 174.964844 28.609375 175.101562 28.660156 175.253906 28.710938 C 174.921875 28.949219 174.613281 29.1875 174.324219 29.378906 C 172.449219 30.625 170.5625 31.875 168.683594 33.132812 C 165.03125 35.558594 161.097656 37.925781 158.113281 41.179688 C 158.066406 41.230469 158.035156 41.289062 158.003906 41.351562 C 157.90625 41.320312 157.816406 41.289062 157.714844 41.261719 C 157.457031 39.972656 157.167969 38.695312 157.007812 37.367188 C 156.777344 35.417969 156.527344 33.480469 156.277344 31.535156 C 156.039062 29.699219 155.769531 27.882812 155.441406 26.054688 C 155.128906 24.328125 154.632812 22.679688 154.121094 21.003906 C 154.28125 20.824219 154.410156 20.621094 154.53125 20.394531 C 157.335938 21.992188 160.332031 23.277344 163.34375 24.398438 C 167.15625 25.824219 170.972656 27.230469 174.8125 28.558594 Z M 153.035156 21.910156 C 153.035156 23.167969 153.0625 24.425781 153.152344 25.683594 C 152.894531 25.34375 152.636719 25.015625 152.386719 24.675781 L 151.058594 22.960938 C 151.246094 22.859375 151.449219 22.757812 151.636719 22.667969 C 152.125 22.417969 152.59375 22.179688 153.035156 21.910156 Z M 150.597656 23.199219 C 151.046875 23.808594 151.496094 24.425781 151.945312 25.035156 C 152.386719 25.632812 152.824219 26.222656 153.265625 26.824219 C 153.445312 28.410156 153.664062 29.976562 153.914062 31.546875 C 153.804688 31.105469 153.492188 30.765625 153.214844 30.425781 C 152.90625 30.058594 152.585938 29.679688 152.277344 29.308594 C 151.605469 28.511719 150.949219 27.722656 150.28125 26.921875 L 148.183594 24.417969 C 148.183594 24.417969 148.285156 24.367188 148.332031 24.347656 C 149.082031 23.96875 149.839844 23.578125 150.589844 23.199219 Z M 133.949219 31.367188 C 136.433594 30.347656 138.859375 29.160156 141.246094 27.941406 C 142.425781 27.34375 143.601562 26.742188 144.769531 26.152344 C 144.769531 26.164062 144.769531 26.175781 144.789062 26.195312 C 146.316406 28.109375 147.835938 30.019531 149.359375 31.933594 C 150.101562 32.863281 150.839844 33.792969 151.578125 34.71875 C 151.964844 35.210938 152.367188 35.707031 152.753906 36.199219 C 153.09375 36.628906 153.421875 37.214844 153.921875 37.457031 C 154.101562 37.535156 154.300781 37.40625 154.253906 37.195312 C 154.140625 36.695312 153.683594 36.277344 153.363281 35.886719 C 152.984375 35.429688 152.613281 34.96875 152.246094 34.511719 C 151.449219 33.53125 150.660156 32.5625 149.859375 31.585938 C 148.324219 29.699219 146.777344 27.8125 145.238281 25.925781 C 145.988281 25.542969 146.746094 25.164062 147.496094 24.777344 C 148.214844 25.65625 148.933594 26.542969 149.652344 27.421875 C 150.269531 28.179688 150.886719 28.929688 151.507812 29.6875 C 151.835938 30.085938 152.164062 30.488281 152.496094 30.894531 C 152.792969 31.265625 153.085938 31.683594 153.535156 31.886719 C 153.734375 31.964844 153.933594 31.835938 153.914062 31.625 C 153.960938 31.925781 154.003906 32.214844 154.042969 32.515625 C 154.363281 34.519531 154.691406 36.515625 155.039062 38.523438 C 155.148438 39.171875 155.261719 39.871094 155.441406 40.539062 C 152.605469 39.632812 149.761719 38.742188 146.914062 37.894531 C 141.078125 36.148438 135.257812 34.402344 129.296875 33.121094 C 129.097656 33.082031 128.9375 33.113281 128.789062 33.171875 C 128.769531 33.152344 128.75 33.132812 128.730469 33.113281 C 130.496094 32.632812 132.222656 32.09375 133.929688 31.394531 Z M 133.710938 51.042969 C 133.050781 48.050781 132.402344 45.0625 131.742188 42.070312 C 131.394531 40.480469 131.066406 38.902344 130.667969 37.324219 C 130.476562 36.578125 130.285156 35.796875 130.007812 35.058594 C 138.453125 38.164062 147.105469 40.742188 155.679688 43.484375 C 155.238281 45.351562 155 47.300781 154.691406 49.136719 C 154.242188 51.8125 153.734375 54.480469 153.175781 57.132812 C 153.132812 57.324219 153.09375 57.523438 153.054688 57.714844 C 152.636719 56.855469 151.925781 56.097656 151.347656 55.335938 C 150.75 54.558594 150.160156 53.78125 149.5625 53 C 148.351562 51.414062 147.144531 49.828125 145.925781 48.238281 C 145.789062 48.058594 145.476562 48.238281 145.617188 48.417969 C 146.816406 50.046875 148.015625 51.671875 149.222656 53.300781 L 151.019531 55.746094 C 151.578125 56.503906 152.097656 57.402344 152.824219 58.023438 C 152.875 58.074219 152.933594 58.074219 152.984375 58.0625 C 152.496094 60.410156 152.027344 62.765625 151.488281 65.101562 C 151.417969 65.410156 151.335938 65.722656 151.257812 66.03125 C 150.578125 64.84375 149.539062 63.792969 148.683594 62.746094 C 147.703125 61.527344 146.726562 60.320312 145.746094 59.101562 C 143.792969 56.675781 141.835938 54.25 139.878906 51.824219 C 139.71875 51.625 139.449219 51.902344 139.597656 52.101562 C 141.515625 54.507812 143.421875 56.90625 145.339844 59.3125 C 146.277344 60.488281 147.226562 61.675781 148.164062 62.855469 C 149.101562 64.035156 149.988281 65.460938 151.136719 66.441406 C 150.796875 67.738281 150.429688 69.066406 150.230469 70.394531 C 149.242188 68.875 148.035156 67.476562 146.886719 66.070312 C 145.679688 64.582031 144.460938 63.09375 143.253906 61.609375 C 142.984375 61.269531 142.503906 61.746094 142.773438 62.085938 C 143.972656 63.542969 145.167969 65.011719 146.355469 66.46875 C 147.542969 67.917969 148.703125 69.433594 150.050781 70.742188 C 150.078125 70.773438 150.121094 70.792969 150.160156 70.792969 C 150.121094 71.152344 150.089844 71.511719 150.070312 71.871094 C 149.101562 71.550781 148.125 71.253906 147.144531 70.953125 C 146.597656 70.195312 145.976562 69.496094 145.378906 68.777344 C 144.511719 67.726562 143.632812 66.679688 142.761719 65.632812 C 141.015625 63.535156 139.269531 61.4375 137.523438 59.339844 C 137.292969 59.070312 136.914062 59.460938 137.132812 59.730469 L 142.253906 65.960938 C 143.09375 66.980469 143.929688 68.007812 144.78125 69.027344 C 145.21875 69.554688 145.648438 70.105469 146.097656 70.632812 C 143.074219 69.722656 140.027344 68.914062 136.953125 68.1875 C 136.054688 62.4375 134.929688 56.746094 133.691406 51.042969 Z M 114.984375 69.605469 C 126.515625 70.363281 137.941406 72.890625 148.910156 76.453125 C 160.480469 80.21875 171.550781 85.449219 181.800781 92.007812 C 197.28125 101.914062 210.65625 115.050781 220.21875 130.675781 C 220.738281 131.515625 221.246094 132.363281 221.726562 133.214844 C 221.257812 133.484375 220.789062 133.753906 220.320312 134.042969 C 220.835938 133.871094 221.375 133.691406 221.90625 133.53125 C 222.535156 134.632812 223.144531 135.738281 223.730469 136.859375 C 225.320312 139.863281 226.765625 142.949219 228.0625 146.113281 C 228.285156 146.632812 228.484375 147.171875 228.691406 147.699219 C 229.230469 149.078125 229.761719 150.484375 230.238281 151.882812 C 237.40625 172.5625 238.273438 195.15625 231.039062 216 C 228.851562 222.292969 225.976562 228.300781 222.574219 234.003906 C 229.601562 218.328125 234.453125 201.40625 233.375 184.082031 C 233.066406 179.03125 232.375 173.976562 230.5 169.265625 C 230.390625 168.996094 230.019531 169.097656 230.070312 169.386719 C 230.839844 173.75 231.738281 178.121094 232.105469 182.554688 C 232.464844 186.878906 232.445312 191.222656 232.105469 195.542969 C 231.40625 204.371094 229.34375 212.957031 226.714844 221.382812 C 225.199219 226.253906 223.402344 231.019531 221.386719 235.699219 C 220.6875 235.441406 219.878906 235.550781 219.210938 236.300781 C 218.722656 236.839844 218.234375 237.386719 217.734375 237.917969 C 223.152344 226.585938 225.660156 213.863281 225.378906 201.324219 C 225.03125 185.5 220.117188 170.394531 212.203125 156.855469 C 211.515625 155.675781 210.816406 154.519531 210.085938 153.371094 C 209.269531 152.074219 208.421875 150.796875 207.550781 149.527344 C 206.734375 148.347656 205.894531 147.191406 205.046875 146.042969 C 204.277344 145.015625 203.488281 143.996094 202.691406 142.988281 C 202.351562 142.578125 202.03125 142.160156 201.695312 141.75 C 200.746094 140.601562 199.785156 139.464844 198.800781 138.355469 C 185.402344 123.089844 168.257812 110.648438 149.75 102.210938 C 128.691406 92.597656 104.425781 87.964844 81.617188 93.847656 C 63.8125 98.449219 46.851562 109.371094 37.230469 125.078125 C 37.429688 124.566406 37.648438 124.058594 37.859375 123.546875 C 37.910156 123.519531 37.960938 123.480469 38 123.410156 C 47.320312 105.386719 66.535156 96.542969 85.492188 92.417969 C 88.503906 91.757812 91.539062 91.210938 94.582031 90.722656 C 97.585938 90.242188 100.761719 90.09375 103.695312 89.234375 C 104.027344 89.144531 103.957031 88.664062 103.617188 88.65625 C 100.902344 88.542969 98.125 89.125 95.453125 89.511719 C 92.628906 89.921875 89.800781 90.371094 86.996094 90.910156 C 81.476562 91.96875 76.039062 93.355469 70.746094 95.273438 C 61.734375 98.546875 53.242188 103.421875 46.433594 110.238281 C 44.257812 112.425781 42.300781 114.792969 40.59375 117.328125 C 41.652344 115.113281 42.78125 112.945312 43.96875 110.808594 C 55.355469 99.097656 70.238281 90.910156 86.25 87.644531 C 88.65625 87.15625 91.089844 86.777344 93.535156 86.519531 C 95.8125 86.277344 98.386719 86.476562 100.574219 85.777344 C 100.871094 85.679688 100.882812 85.25 100.574219 85.160156 C 98.566406 84.570312 96.179688 84.960938 94.132812 85.148438 C 92.027344 85.347656 89.933594 85.628906 87.855469 85.988281 C 83.472656 86.746094 79.171875 87.894531 74.988281 89.402344 C 66.933594 92.296875 59.210938 96.441406 52.511719 101.785156 C 50.007812 103.78125 47.671875 105.945312 45.457031 108.242188 C 46.402344 106.644531 47.390625 105.066406 48.417969 103.519531 C 53.640625 98.949219 59.46875 95.023438 65.71875 92.019531 C 69.222656 90.332031 72.855469 88.945312 76.578125 87.835938 C 80.289062 86.738281 84.121094 86.179688 87.847656 85.128906 C 88.226562 85.019531 88.144531 84.460938 87.757812 84.449219 C 83.8125 84.351562 79.769531 85.441406 76.019531 86.566406 C 72.316406 87.675781 68.710938 89.105469 65.238281 90.800781 C 59.886719 93.40625 54.917969 96.671875 50.464844 100.566406 C 51.292969 99.40625 52.144531 98.257812 53.011719 97.128906 C 58 93.464844 63.363281 90.210938 68.910156 87.535156 C 72.355469 85.878906 75.910156 84.449219 79.542969 83.253906 C 83.144531 82.066406 86.90625 81.324219 90.492188 80.089844 C 90.820312 79.976562 90.789062 79.417969 90.402344 79.449219 C 86.636719 79.679688 82.777344 80.917969 79.230469 82.125 C 75.589844 83.363281 72.027344 84.839844 68.570312 86.539062 C 63.460938 89.042969 58.691406 92.027344 54.257812 95.503906 C 56.304688 92.925781 58.472656 90.441406 60.726562 88.023438 C 77.972656 76.292969 99.953125 72.210938 120.515625 73.617188 C 126.824219 74.046875 133.0625 75.144531 139.320312 75.984375 C 139.847656 76.054688 139.898438 75.246094 139.441406 75.085938 C 133.949219 73.257812 128.242188 72.441406 122.5 71.949219 C 116.691406 71.453125 110.851562 71.390625 105.035156 71.800781 C 93.804688 72.589844 82.40625 75.035156 72.246094 80.019531 C 69.441406 81.394531 66.683594 82.921875 64.03125 84.589844 C 64.808594 83.8125 65.585938 83.023438 66.394531 82.253906 C 68.414062 80.335938 70.429688 78.449219 72.496094 76.582031 C 75.609375 75.105469 78.8125 73.839844 82.105469 72.839844 C 92.738281 69.625 103.976562 68.855469 115.023438 69.585938 Z M 142.265625 272.660156 C 123.777344 273.558594 105.183594 269.734375 88.683594 261.070312 C 68.113281 250.265625 51.132812 232.914062 40.652344 212.175781 C 29.992188 191.109375 26.949219 166.980469 31.679688 143.875 C 32.269531 141 32.96875 138.144531 33.757812 135.328125 C 36.121094 131.417969 38.386719 127.433594 41.191406 123.796875 C 44.085938 120.0625 47.441406 116.691406 51.066406 113.644531 C 58.449219 107.414062 67.175781 102.839844 76.378906 99.796875 C 97.367188 92.835938 120.136719 95.3125 140.496094 103.152344 C 160.851562 110.96875 179.585938 123.976562 194.15625 140.011719 C 194.265625 140.132812 194.378906 140.253906 194.488281 140.371094 C 184.414062 145.324219 175.023438 151.683594 166.667969 159.152344 C 148.980469 175.007812 136.375 196.871094 133.320312 220.574219 C 131.003906 238.484375 134.867188 256.378906 142.253906 272.671875 Z M 126.234375 296.0625 C 112.71875 298.082031 99.023438 297.023438 86.179688 292.320312 C 74.269531 287.976562 63.332031 280.949219 53.710938 272.769531 C 35.695312 257.464844 21.609375 237.367188 13.953125 214.964844 C 6.496094 193.089844 5.410156 169.496094 11.988281 147.269531 C 16.910156 130.585938 26.019531 115.5 38.089844 103 C 44.425781 96.441406 51.394531 89.980469 59.03125 84.5625 C 53.929688 89.441406 49.417969 94.984375 45.476562 100.765625 C 43.25 104.03125 41.214844 107.425781 39.328125 110.898438 C 35.113281 117.410156 31.730469 124.496094 29.054688 131.675781 C 24.945312 142.679688 22.527344 154.449219 22.128906 166.191406 C 21.898438 172.769531 22.277344 179.339844 23.316406 185.839844 C 23.335938 185.980469 23.574219 185.949219 23.566406 185.808594 C 21.210938 165.363281 24.253906 144.464844 32.589844 125.695312 C 31.550781 128.460938 30.621094 131.257812 29.792969 134.09375 C 22.9375 157.804688 23.804688 183.464844 33.238281 206.347656 C 42.410156 228.613281 58.570312 247.800781 78.941406 260.640625 C 98.457031 272.941406 121.441406 278.613281 144.390625 277.0625 C 144.648438 277.582031 144.929688 278.101562 145.199219 278.621094 C 142.914062 278.929688 140.628906 279.261719 138.320312 279.449219 C 134.429688 279.761719 130.507812 279.828125 126.605469 279.660156 C 122.582031 279.480469 118.578125 279.042969 114.617188 278.324219 C 112.648438 277.972656 110.695312 277.574219 108.757812 277.105469 C 106.832031 276.644531 104.914062 275.984375 102.957031 275.636719 C 102.789062 275.605469 102.648438 275.847656 102.828125 275.9375 C 104.613281 276.792969 106.640625 277.292969 108.558594 277.804688 C 110.484375 278.320312 112.421875 278.773438 114.375 279.140625 C 118.257812 279.871094 122.191406 280.359375 126.132812 280.589844 C 130.195312 280.828125 134.257812 280.789062 138.3125 280.457031 C 140.746094 280.257812 143.242188 280.019531 145.679688 279.558594 C 147.503906 283.015625 149.472656 286.378906 151.578125 289.632812 C 143.324219 292.589844 134.816406 294.765625 126.246094 296.054688 Z M 339.257812 319.285156 C 337.871094 320.773438 336.421875 322.210938 334.945312 323.621094 C 332.976562 324.398438 331.03125 325.226562 329.046875 325.945312 C 325.960938 327.054688 322.835938 328.03125 319.671875 328.871094 C 313.246094 330.589844 306.667969 331.789062 300.039062 332.4375 C 287.023438 333.722656 273.808594 332.933594 261.042969 330.070312 C 253.707031 328.421875 246.5 326.097656 239.582031 323.132812 C 239.332031 323.03125 239.125 323.378906 239.375 323.492188 C 263.617188 334.421875 291.625 336.609375 317.40625 330.300781 C 321 329.421875 324.5625 328.371094 328.058594 327.164062 C 329.734375 326.585938 331.453125 325.988281 333.128906 325.328125 C 319.34375 337.855469 302.316406 346.753906 284.058594 350.585938 C 262.441406 355.109375 239.851562 351.636719 219.820312 342.648438 C 199.136719 333.375 181.003906 318.835938 166.539062 301.445312 C 164.105469 298.511719 161.746094 295.453125 159.503906 292.308594 C 158.453125 290.84375 157.4375 289.34375 156.449219 287.828125 C 154.042969 284.191406 151.816406 280.429688 149.789062 276.585938 C 149.042969 275.15625 148.3125 273.71875 147.625 272.273438 C 142.425781 261.371094 138.910156 249.738281 137.972656 237.71875 C 136.175781 214.761719 144.519531 192.140625 158.964844 174.457031 C 169.472656 161.578125 182.859375 151.542969 197.519531 143.867188 C 198.03125 144.464844 198.519531 145.085938 199.007812 145.695312 C 190.695312 152.613281 184.007812 161.6875 179.027344 171.191406 C 173.425781 181.886719 169.902344 193.667969 168.824219 205.699219 C 168.214844 212.457031 168.476562 219.226562 169.492188 225.9375 C 169.511719 226.035156 169.691406 226.015625 169.671875 225.914062 C 166.949219 202.171875 173.867188 177.503906 188.367188 158.542969 C 191.742188 154.128906 195.515625 150.136719 199.515625 146.332031 C 200.296875 147.3125 201.054688 148.308594 201.804688 149.316406 C 194.425781 157.066406 188.328125 166.042969 183.847656 175.734375 C 173.304688 198.570312 172.308594 224.738281 179.722656 248.660156 C 181.140625 253.203125 182.839844 257.625 184.816406 261.898438 C 185.453125 263.285156 186.121094 264.664062 186.8125 266.011719 C 187.5 267.351562 188.199219 268.65625 188.945312 269.957031 C 189.835938 271.53125 190.773438 273.089844 191.753906 274.617188 C 199.855469 287.449219 210.566406 298.578125 223.113281 307.425781 C 242.335938 320.953125 265.714844 329.160156 289.300781 329.492188 C 300.5 329.652344 311.847656 328.101562 322.488281 324.5 C 330.183594 321.894531 337.890625 318.199219 344.488281 313.214844 C 342.828125 315.3125 341.09375 317.339844 339.265625 319.296875 Z M 339.257812 319.285156 " fill-opacity="1" fill-rule="nonzero"/></g><path fill="#000000" d="M 152.195312 78.851562 C 165.878906 84.601562 178.585938 92.648438 189.675781 102.523438 C 200.65625 112.296875 210.15625 123.808594 217.613281 136.488281 C 219.710938 140.0625 221.675781 143.726562 223.484375 147.460938 C 224.351562 149.269531 225.191406 151.105469 225.976562 152.953125 C 226.804688 154.890625 227.503906 156.957031 228.644531 158.734375 C 228.882812 159.101562 229.363281 158.84375 229.300781 158.453125 C 228.8125 154.890625 226.917969 151.304688 225.4375 148.050781 C 223.871094 144.613281 222.175781 141.242188 220.296875 137.976562 C 216.605469 131.535156 212.394531 125.40625 207.730469 119.636719 C 198.398438 108.082031 187.082031 98.050781 174.585938 90.03125 C 167.527344 85.5 160.0625 81.636719 152.296875 78.492188 C 152.074219 78.402344 151.976562 78.761719 152.195312 78.851562 Z M 152.195312 78.851562 " fill-opacity="1" fill-rule="nonzero"/><path fill="#000000" d="M 209.738281 129.6875 C 205.015625 122.609375 199.507812 116.011719 193.46875 110.019531 C 189.976562 106.546875 186.230469 103.320312 182.371094 100.277344 C 182.148438 100.105469 181.839844 100.40625 182.058594 100.585938 C 195.285156 111.339844 206.375 124.757812 214.609375 139.683594 C 216.925781 143.875 218.75 148.308594 221.046875 152.492188 C 221.1875 152.753906 221.617188 152.574219 221.535156 152.292969 C 220.359375 148.28125 218.34375 144.464844 216.386719 140.792969 C 214.359375 136.988281 212.144531 133.285156 209.75 129.699219 Z M 209.738281 129.6875 " fill-opacity="1" fill-rule="nonzero"/><path fill="#000000" d="M 202.742188 126.503906 C 198.160156 120.183594 192.980469 114.273438 187.410156 108.8125 C 187.21875 108.632812 186.941406 108.910156 187.121094 109.101562 C 192.609375 114.691406 197.570312 120.742188 202.074219 127.152344 C 204.269531 130.277344 206.355469 133.472656 208.292969 136.769531 C 210.265625 140.113281 212.003906 143.605469 214.050781 146.910156 C 214.191406 147.132812 214.589844 146.992188 214.488281 146.722656 C 213.132812 143.058594 211.144531 139.613281 209.148438 136.269531 C 207.152344 132.933594 205.027344 129.667969 202.742188 126.515625 Z M 202.742188 126.503906 " fill-opacity="1" fill-rule="nonzero"/><path fill="#000000" d="M 60.917969 251.335938 C 50.277344 241.449219 41.253906 229.789062 34.394531 216.980469 C 30.511719 209.730469 27.238281 202.132812 24.714844 194.304688 C 24.675781 194.175781 24.464844 194.226562 24.503906 194.367188 C 28.417969 208.535156 35.035156 221.820312 43.71875 233.671875 C 52.371094 245.484375 62.980469 255.996094 75.128906 264.203125 C 81.9375 268.808594 89.234375 272.632812 96.839844 275.738281 C 96.949219 275.777344 97.019531 275.597656 96.917969 275.546875 C 83.742188 269.515625 71.527344 261.199219 60.917969 251.34375 Z M 60.917969 251.335938 " fill-opacity="1" fill-rule="nonzero"/><path fill="#000000" d="M 49.4375 263.457031 C 46.222656 260.609375 43.167969 257.585938 40.273438 254.410156 C 34.414062 247.992188 29.34375 240.933594 25.011719 233.402344 C 22.558594 229.128906 20.363281 224.707031 18.464844 220.15625 C 18.277344 219.707031 17.527344 219.894531 17.71875 220.363281 C 24.164062 236.699219 34.375 251.445312 47.402344 263.214844 C 51.003906 266.472656 54.789062 269.644531 59 272.070312 C 59.28125 272.230469 59.609375 271.832031 59.347656 271.621094 C 56.074219 268.867188 52.652344 266.292969 49.4375 263.457031 Z M 49.4375 263.457031 " fill-opacity="1" fill-rule="nonzero"/><path fill="#000000" d="M 37.21875 246.703125 C 40.023438 250.105469 43.039062 253.34375 46.234375 256.378906 C 49.296875 259.292969 52.53125 262.449219 56.246094 264.542969 C 56.5625 264.722656 56.914062 264.292969 56.644531 264.023438 C 53.628906 261.019531 50.144531 258.492188 47.050781 255.558594 C 43.90625 252.5625 40.933594 249.398438 38.140625 246.074219 C 32.539062 239.425781 27.679688 232.097656 23.546875 224.457031 C 23.4375 224.25 23.136719 224.429688 23.238281 224.636719 C 26.929688 232.585938 31.652344 239.933594 37.21875 246.691406 Z M 37.21875 246.703125 " fill-opacity="1" fill-rule="nonzero"/><path fill="#000000" d="M 54.71875 258.203125 C 54.898438 258.34375 55.136719 258.125 54.96875 257.953125 C 51.09375 253.8125 46.921875 249.96875 43.148438 245.722656 C 39.296875 241.402344 35.644531 236.878906 32.238281 232.1875 C 32.109375 232.007812 31.800781 232.175781 31.929688 232.367188 C 35.144531 237.066406 38.609375 241.589844 42.351562 245.882812 C 46.144531 250.226562 50.144531 254.660156 54.707031 258.203125 Z M 54.71875 258.203125 " fill-opacity="1" fill-rule="nonzero"/><path fill="#000000" d="M 214.519531 307.207031 C 220.507812 312.289062 226.9375 317.25 233.894531 320.945312 C 234.273438 321.144531 234.570312 320.613281 234.222656 320.375 C 228.445312 316.390625 222.664062 312.519531 217.273438 308.003906 C 211.972656 303.5625 206.964844 298.78125 202.300781 293.679688 C 192.878906 283.34375 184.976562 271.683594 178.765625 259.152344 C 175.261719 252.085938 172.207031 244.714844 169.8125 237.1875 C 169.734375 236.949219 169.363281 237.046875 169.433594 237.289062 C 173.257812 250.886719 179.09375 263.695312 186.800781 275.535156 C 194.46875 287.308594 203.800781 298.101562 214.507812 307.207031 Z M 214.519531 307.207031 " fill-opacity="1" fill-rule="nonzero"/><path fill="#000000" d="M 361.234375 230.949219 C 361.265625 231.167969 361.625 231.109375 361.613281 230.898438 C 361.40625 221.953125 359.128906 212.996094 356.003906 204.660156 C 352.902344 196.363281 348.710938 188.484375 343.480469 181.335938 C 340.503906 177.261719 337.210938 173.429688 333.636719 169.863281 C 333.425781 169.65625 333.117188 169.976562 333.316406 170.183594 C 345.726562 182.902344 354.589844 199.070312 358.679688 216.359375 C 359.816406 221.171875 360.558594 226.054688 361.234375 230.949219 Z M 361.234375 230.949219 " fill-opacity="1" fill-rule="nonzero"/><path fill="#000000" d="M 329.226562 182.273438 C 329.15625 182.226562 329.066406 182.324219 329.105469 182.394531 C 329.925781 183.832031 331.183594 185.039062 332.210938 186.328125 C 333.398438 187.804688 334.535156 189.332031 335.632812 190.882812 C 337.699219 193.808594 339.597656 196.863281 341.292969 200.015625 C 344.695312 206.355469 347.3125 213.117188 349.058594 220.105469 C 350.046875 224.039062 350.664062 228.0625 351.503906 232.027344 C 351.5625 232.324219 352.023438 232.253906 352.023438 231.957031 C 351.941406 224.6875 349.738281 217.308594 347.152344 210.558594 C 344.546875 203.761719 341.113281 197.28125 336.921875 191.320312 C 335.792969 189.714844 334.605469 188.15625 333.359375 186.636719 C 332.128906 185.140625 330.851562 183.363281 329.246094 182.265625 Z M 329.226562 182.273438 " fill-opacity="1" fill-rule="nonzero"/><path fill="#000000" d="M 347.671875 202.914062 C 345.074219 197.570312 342.011719 192.460938 338.628906 187.578125 C 338.457031 187.328125 338.058594 187.558594 338.230469 187.816406 C 341.421875 192.660156 344.246094 197.710938 346.753906 202.941406 C 348.019531 205.589844 349.1875 208.273438 350.257812 211.007812 C 350.796875 212.398438 351.3125 213.785156 351.824219 215.183594 C 352.28125 216.441406 352.621094 217.839844 353.332031 218.988281 C 353.449219 219.175781 353.800781 219.117188 353.78125 218.867188 C 353.691406 217.527344 353.140625 216.203125 352.703125 214.941406 C 352.222656 213.535156 351.695312 212.148438 351.144531 210.769531 C 350.078125 208.113281 348.917969 205.5 347.671875 202.921875 Z M 347.671875 202.914062 " fill-opacity="1" fill-rule="nonzero"/><path fill="#000000" d="M 354.320312 208.214844 C 353.441406 205.417969 352.023438 202.78125 350.765625 200.136719 C 349.476562 197.421875 348.089844 194.746094 346.753906 192.050781 C 346.59375 191.71875 346.125 192.007812 346.261719 192.328125 C 347.460938 195.042969 348.621094 197.78125 349.855469 200.476562 C 351.085938 203.152344 352.210938 205.9375 353.800781 208.421875 C 353.96875 208.683594 354.410156 208.523438 354.308594 208.203125 Z M 354.320312 208.214844 " fill-opacity="1" fill-rule="nonzero"/><path fill="#000000" d="M 191.3125 318.589844 C 186.652344 314.792969 182.269531 310.660156 178.199219 306.246094 C 178.019531 306.058594 177.738281 306.335938 177.90625 306.539062 C 192.28125 322.652344 210.726562 334.914062 231.128906 341.972656 C 236.898438 343.96875 242.808594 345.554688 248.867188 346.363281 C 249.125 346.394531 249.164062 345.984375 248.925781 345.914062 C 238.453125 343.289062 228.214844 340.234375 218.421875 335.640625 C 208.742188 331.097656 199.617188 325.347656 191.324219 318.589844 Z M 191.3125 318.589844 " fill-opacity="1" fill-rule="nonzero"/><path fill="#000000" d="M 197.75 317.898438 C 197.460938 317.667969 197.050781 318.078125 197.339844 318.308594 C 204.347656 323.890625 211.953125 328.683594 220.027344 332.574219 C 228.035156 336.441406 236.617188 339.734375 245.402344 341.242188 C 245.671875 341.292969 245.792969 340.902344 245.523438 340.824219 C 236.925781 338.386719 228.492188 335.78125 220.410156 331.945312 C 212.363281 328.121094 204.757812 323.410156 197.761719 317.910156 Z M 197.75 317.898438 " fill-opacity="1" fill-rule="nonzero"/><path fill="#000000" d="M 200.644531 313.964844 C 200.464844 313.785156 200.195312 314.066406 200.367188 314.246094 C 212.152344 326.117188 228.214844 334.792969 244.972656 336.589844 C 245.203125 336.609375 245.253906 336.230469 245.023438 336.191406 C 236.769531 334.59375 228.703125 332.214844 221.15625 328.460938 C 213.632812 324.71875 206.675781 319.824219 200.644531 313.976562 Z M 200.644531 313.964844 " fill-opacity="1" fill-rule="nonzero"/><path fill="#000000" d="M 225.769531 325.738281 C 221.457031 323.75 217.3125 321.402344 213.371094 318.757812 C 213.183594 318.628906 213.003906 318.9375 213.191406 319.066406 C 221.066406 324.429688 230.050781 328.972656 239.382812 331.128906 C 239.582031 331.179688 239.652344 330.886719 239.464844 330.828125 C 234.8125 329.320312 230.210938 327.785156 225.769531 325.738281 Z M 225.769531 325.738281 " fill-opacity="1" fill-rule="nonzero"/><path fill="#000000" d="M 215.71875 315.042969 C 223.035156 319.957031 230.949219 324.417969 239.3125 327.285156 C 239.464844 327.335938 239.5625 327.09375 239.421875 327.023438 C 231.308594 323.378906 223.371094 319.585938 215.917969 314.695312 C 215.699219 314.554688 215.496094 314.902344 215.707031 315.042969 Z M 215.71875 315.042969 " fill-opacity="1" fill-rule="nonzero"/><path fill="#000000" d="M 146.714844 197.851562 C 148.910156 192.339844 151.835938 187.15625 155.082031 182.195312 C 155.238281 181.945312 154.851562 181.636719 154.660156 181.875 C 148.054688 190.261719 143.832031 200.574219 141.65625 210.980469 C 139.460938 221.460938 139.28125 232.484375 141.496094 242.988281 C 142.734375 248.859375 144.679688 254.558594 147.246094 259.980469 C 147.375 260.242188 147.753906 260.011719 147.632812 259.75 C 138.902344 240.402344 138.890625 217.488281 146.714844 197.859375 Z M 146.714844 197.851562 " fill-opacity="1" fill-rule="nonzero"/><path fill="#000000" d="M 144.878906 234.960938 C 144.878906 234.960938 144.910156 234.972656 144.910156 234.960938 C 143.164062 220.933594 146.058594 206.796875 152.59375 194.304688 C 154.410156 190.839844 156.527344 187.558594 158.8125 184.390625 C 158.941406 184.203125 158.644531 183.972656 158.492188 184.140625 C 149.449219 194.925781 144.78125 209.09375 144.261719 223.050781 C 144.109375 227.035156 144.332031 231.019531 144.878906 234.960938 Z M 144.878906 234.960938 " fill-opacity="1" fill-rule="nonzero"/><path fill="#000000" d="M 162.117188 183.714844 C 157.476562 188.644531 154.300781 195.023438 152.253906 201.433594 C 150.148438 208.035156 149.382812 215.003906 149.921875 221.902344 C 149.941406 222.183594 150.371094 222.183594 150.359375 221.902344 C 150.039062 215.121094 151 208.332031 153.09375 201.882812 C 155.210938 195.375 158.632812 189.625 162.546875 184.050781 C 162.726562 183.792969 162.328125 183.492188 162.117188 183.722656 Z M 162.117188 183.714844 " fill-opacity="1" fill-rule="nonzero"/><path fill="#000000" d="M 145.566406 55.199219 C 146.40625 56.277344 147.285156 57.335938 148.203125 58.351562 C 148.671875 58.871094 149.152344 59.390625 149.652344 59.890625 C 150.070312 60.320312 150.539062 60.886719 151.128906 61.078125 C 151.289062 61.128906 151.46875 60.957031 151.40625 60.796875 C 151.21875 60.28125 150.738281 59.890625 150.347656 59.5 C 149.851562 59.011719 149.359375 58.503906 148.871094 58.003906 C 147.925781 57.023438 147.003906 56.007812 146.128906 54.957031 C 144.332031 52.820312 142.695312 50.566406 141.238281 48.179688 C 141.117188 47.988281 140.828125 48.160156 140.9375 48.347656 C 142.335938 50.726562 143.882812 53.011719 145.578125 55.1875 Z M 145.566406 55.199219 " fill-opacity="1" fill-rule="nonzero"/></svg>